<svg width="24" height="24" viewBox="0 0 24 24" fill="none" xmlns="http://www.w3.org/2000/svg">
<path d="M12 7C11.4067 7 10.8266 7.17595 10.3333 7.50559C9.83994 7.83524 9.45542 8.30377 9.22836 8.85195C9.0013 9.40013 8.94189 10.0033 9.05764 10.5853C9.1734 11.1672 9.45912 11.7018 9.87868 12.1213C10.2982 12.5409 10.8328 12.8266 11.4147 12.9424C11.9967 13.0581 12.5999 12.9987 13.1481 12.7716C13.6962 12.5446 14.1648 12.1601 14.4944 11.6667C14.8241 11.1734 15 10.5933 15 10C15 9.20435 14.6839 8.44129 14.1213 7.87868C13.5587 7.31607 12.7956 7 12 7ZM12 11C11.8022 11 11.6089 10.9414 11.4444 10.8315C11.28 10.7216 11.1518 10.5654 11.0761 10.3827C11.0004 10.2 10.9806 9.99889 11.0192 9.80491C11.0578 9.61093 11.153 9.43275 11.2929 9.29289C11.4327 9.15304 11.6109 9.0578 11.8049 9.01921C11.9989 8.98063 12.2 9.00043 12.3827 9.07612C12.5654 9.15181 12.7216 9.27998 12.8315 9.44443C12.9414 9.60888 13 9.80222 13 10C13 10.2652 12.8946 10.5196 12.7071 10.7071C12.5196 10.8946 12.2652 11 12 11ZM12 2C9.87827 2 7.84344 2.84285 6.34315 4.34315C4.84285 5.84344 4 7.87827 4 10C4 16 9.37 20.51 11.31 22.36C11.496 22.5373 11.7431 22.6362 12 22.6362C12.2569 22.6362 12.504 22.5373 12.69 22.36C14.63 20.51 20 16 20 10C20 7.87827 19.1571 5.84344 17.6569 4.34315C16.1566 2.84285 14.1217 2 12 2ZM12 20.26C10 18.34 6 14.54 6 10C6 8.4087 6.63214 6.88258 7.75736 5.75736C8.88258 4.63214 10.4087 4 12 4C13.5913 4 15.1174 4.63214 16.2426 5.75736C17.3679 6.88258 18 8.4087 18 10C18 14.54 14.05 18.34 12 20.26Z" fill="#222221" fill-opacity="0.21"/>
</svg>
