<svg width="210" height="38" viewBox="0 0 210 38" fill="none" xmlns="http://www.w3.org/2000/svg">
<path d="M10.85 37V8.75H0.65V2H28.85V8.75H18.35V37H10.85ZM37.9637 37.5C35.7637 37.5 33.7803 36.9 32.0137 35.7C30.247 34.5 28.847 32.8667 27.8137 30.8C26.7803 28.7333 26.2637 26.3667 26.2637 23.7C26.2637 21.0333 26.7803 18.6833 27.8137 16.65C28.8803 14.5833 30.3137 12.9667 32.1137 11.8C33.9137 10.6 35.9637 10 38.2637 10C39.5637 10 40.747 10.2 41.8137 10.6C42.9137 10.9667 43.8637 11.4833 44.6637 12.15C45.497 12.8167 46.197 13.5833 46.7637 14.45C47.3303 15.3167 47.7303 16.25 47.9637 17.25L46.4637 17V10.55H53.5137V37H46.3637V30.65L47.9637 30.5C47.697 31.4333 47.2637 32.3167 46.6637 33.15C46.0637 33.9833 45.3137 34.7333 44.4137 35.4C43.547 36.0333 42.5637 36.55 41.4637 36.95C40.3637 37.3167 39.197 37.5 37.9637 37.5ZM39.9137 31.35C41.247 31.35 42.4137 31.0333 43.4137 30.4C44.4137 29.7667 45.1803 28.8833 45.7137 27.75C46.2803 26.5833 46.5637 25.2333 46.5637 23.7C46.5637 22.2 46.2803 20.8833 45.7137 19.75C45.1803 18.6167 44.4137 17.7333 43.4137 17.1C42.4137 16.4333 41.247 16.1 39.9137 16.1C38.6137 16.1 37.4637 16.4333 36.4637 17.1C35.497 17.7333 34.7303 18.6167 34.1637 19.75C33.597 20.8833 33.3137 22.2 33.3137 23.7C33.3137 25.2333 33.597 26.5833 34.1637 27.75C34.7303 28.8833 35.497 29.7667 36.4637 30.4C37.4637 31.0333 38.6137 31.35 39.9137 31.35ZM68.532 37.5C66.0654 37.5 63.8654 37.1 61.932 36.3C60.032 35.4667 58.4987 34.3333 57.332 32.9L61.732 29.1C62.7654 30.2 63.9154 31 65.182 31.5C66.4487 31.9667 67.7154 32.2 68.982 32.2C69.482 32.2 69.932 32.15 70.332 32.05C70.7654 31.9167 71.132 31.75 71.432 31.55C71.732 31.3167 71.9487 31.05 72.082 30.75C72.2487 30.4167 72.332 30.0667 72.332 29.7C72.332 28.9667 72.032 28.3833 71.432 27.95C71.0987 27.7833 70.582 27.5833 69.882 27.35C69.182 27.0833 68.282 26.8 67.182 26.5C65.482 26.0667 64.032 25.5667 62.832 25C61.6654 24.4 60.732 23.7333 60.032 23C59.432 22.3 58.9654 21.55 58.632 20.75C58.332 19.9167 58.182 19 58.182 18C58.182 16.8 58.4487 15.7167 58.982 14.75C59.5154 13.75 60.2487 12.9 61.182 12.2C62.1487 11.5 63.2487 10.9667 64.482 10.6C65.7154 10.2 67.0154 10 68.382 10C69.7487 10 71.082 10.1667 72.382 10.5C73.682 10.8333 74.882 11.3167 75.982 11.95C77.1154 12.55 78.0987 13.2667 78.932 14.1L75.132 18.3C74.532 17.7333 73.8487 17.2167 73.082 16.75C72.3487 16.2833 71.582 15.9167 70.782 15.65C69.982 15.3833 69.2654 15.25 68.632 15.25C68.0654 15.25 67.5487 15.3 67.082 15.4C66.6487 15.5 66.282 15.65 65.982 15.85C65.682 16.05 65.4487 16.3167 65.282 16.65C65.1487 16.95 65.082 17.2833 65.082 17.65C65.082 18.0167 65.1654 18.3667 65.332 18.7C65.532 19.0333 65.7987 19.3167 66.132 19.55C66.4987 19.75 67.032 19.9833 67.732 20.25C68.4654 20.5167 69.4487 20.8167 70.682 21.15C72.282 21.5833 73.632 22.0667 74.732 22.6C75.8654 23.1333 76.7654 23.75 77.432 24.45C77.9987 25.05 78.4154 25.7333 78.682 26.5C78.9487 27.2667 79.082 28.1167 79.082 29.05C79.082 30.6833 78.6154 32.15 77.682 33.45C76.782 34.7167 75.532 35.7167 73.932 36.45C72.332 37.15 70.532 37.5 68.532 37.5ZM89.8938 29.05L87.7938 23.2L100.294 10.55H109.644L89.8938 29.05ZM83.1438 37V-4.76837e-07H90.2438V37H83.1438ZM101.044 37L91.5438 25.05L96.5438 21.05L109.594 37H101.044ZM113.515 37V2H121.015V37H113.515ZM116.965 23.1V16.65H135.065V23.1H116.965ZM116.965 8.75V2H137.165V8.75H116.965ZM153.746 37.5C151.046 37.5 148.63 36.9167 146.496 35.75C144.396 34.55 142.73 32.9167 141.496 30.85C140.296 28.7833 139.696 26.4167 139.696 23.75C139.696 21.0833 140.296 18.7333 141.496 16.7C142.73 14.6333 144.396 13 146.496 11.8C148.63 10.6 151.046 10 153.746 10C156.413 10 158.796 10.6 160.896 11.8C163.03 13 164.696 14.6333 165.896 16.7C167.096 18.7333 167.696 21.0833 167.696 23.75C167.696 26.4167 167.096 28.7833 165.896 30.85C164.696 32.9167 163.03 34.55 160.896 35.75C158.796 36.9167 156.413 37.5 153.746 37.5ZM153.746 31.3C155.046 31.3 156.213 30.9833 157.246 30.35C158.28 29.6833 159.08 28.7833 159.646 27.65C160.246 26.4833 160.546 25.1833 160.546 23.75C160.546 22.2833 160.246 20.9833 159.646 19.85C159.08 18.6833 158.28 17.7833 157.246 17.15C156.213 16.4833 155.046 16.15 153.746 16.15C152.413 16.15 151.23 16.4833 150.196 17.15C149.163 17.8167 148.346 18.7167 147.746 19.85C147.146 20.9833 146.863 22.2833 146.896 23.75C146.863 25.1833 147.146 26.4833 147.746 27.65C148.346 28.7833 149.163 29.6833 150.196 30.35C151.23 30.9833 152.413 31.3 153.746 31.3ZM181.138 37.5C179.205 37.5 177.538 37.0833 176.138 36.25C174.772 35.3833 173.705 34.1667 172.938 32.6C172.205 31 171.838 29.0833 171.838 26.85V10.55H178.938V25.7C178.938 26.9 179.138 27.95 179.538 28.85C179.938 29.7167 180.505 30.3833 181.238 30.85C181.972 31.3167 182.872 31.55 183.938 31.55C184.705 31.55 185.422 31.4333 186.088 31.2C186.755 30.9333 187.322 30.5667 187.788 30.1C188.255 29.6333 188.622 29.0833 188.888 28.45C189.155 27.8167 189.288 27.1333 189.288 26.4V10.55H196.388V37H189.638L189.388 31.55L190.688 30.95C190.288 32.1833 189.622 33.3 188.688 34.3C187.755 35.3 186.638 36.0833 185.338 36.65C184.038 37.2167 182.638 37.5 181.138 37.5Z" fill="#232340"/>
<path d="M205.43 37.572C204.078 37.572 203.038 37.1907 202.31 36.428C201.582 35.6653 201.218 34.5733 201.218 33.152C201.218 31.8693 201.6 30.8293 202.362 30.032C203.16 29.2 204.182 28.784 205.43 28.784C206.748 28.784 207.77 29.1653 208.498 29.928C209.226 30.6907 209.59 31.7653 209.59 33.152C209.59 34.4693 209.209 35.544 208.446 36.376C207.684 37.1733 206.678 37.572 205.43 37.572Z" fill="#5468E7"/>
</svg>
